<?xml version="1.0" encoding="iso-8859-1"?>
<!-- Generator: Adobe Illustrator 19.0.0, SVG Export Plug-In . SVG Version: 6.00 Build 0)  -->
<svg version="1.1" id="Capa_1" xmlns="http://www.w3.org/2000/svg" xmlns:xlink="http://www.w3.org/1999/xlink" x="0px" y="0px"
	 fill="whitesmoke" viewBox="0 0 512 512" style="enable-background:new 0 0 512 512;" xml:space="preserve">
<g>
	<g>
		<path d="M402,386.01c-5.53,0-9.99,4.452-9.99,9.99c0,4.798,3.365,8.854,7.99,9.788c6.184,1.249,11.99-3.419,11.99-9.788
			C411.99,390.47,407.538,386.01,402,386.01z"/>
	</g>
</g>
<g>
	<g>
		<path d="M492,187.72V10c0-5.522-4.478-10-10-10H110c-5.522,0-10,4.478-10,10v30H70c-5.522,0-10,4.478-10,10v30H30
			c-5.522,0-10,4.478-10,10v97.72C8.361,191.848,0,202.964,0,216v266c0,16.542,13.458,30,30,30h452c16.542,0,30-13.458,30-30V216
			C512,202.964,503.639,191.848,492,187.72z M120,20h352v166h-20V50c0-5.522-4.478-10-10-10H120V20z M80,60h352v126h-20V90
			c0-5.522-4.478-10-10-10H80V60z M40,100h352v86H246v-10c0-16.542-13.458-30-30-30H90c-16.542,0-30,13.458-30,30v10H40V100z
			 M492,482c0,5.514-4.486,10-10,10H30c-5.514,0-10-4.486-10-10V216c0-5.514,4.486-10,10-10h40c5.522,0,10-4.478,10-10v-20
			c0-5.514,4.486-10,10-10h126c5.514,0,10,4.486,10,10v20c0,5.522,4.478,10,10,10c7.308,0,238.722,0,246,0c5.514,0,10,4.486,10,10
			V482z"/>
	</g>
</g>
<g>
	<g>
		<path d="M442,346H216c-5.522,0-10,4.478-10,10v80c0,5.522,4.478,10,10,10h226c5.522,0,10-4.478,10-10v-80
			C452,350.478,447.522,346,442,346z M432,426H226v-60h206V426z"/>
	</g>
</g>
<g>
	<g>
		<path d="M362,386H256c-5.522,0-10,4.478-10,10c0,5.522,4.478,10,10,10h106c5.522,0,10-4.478,10-10
			C372,390.478,367.522,386,362,386z"/>
	</g>
</g>
<g>
</g>
<g>
</g>
<g>
</g>
<g>
</g>
<g>
</g>
<g>
</g>
<g>
</g>
<g>
</g>
<g>
</g>
<g>
</g>
<g>
</g>
<g>
</g>
<g>
</g>
<g>
</g>
<g>
</g>
</svg>
